{"title":"Fargo S01E01 HDTV x264 AAC [GWC].mp4","uid":9972597,"size":172911796,"categoryP":"video","categoryS":"tv_shows","magnet":"?xt=urn:btih:0947909cfb141754112b241d6555e27519f4c9f3&amp;dn=Fargo+S01E01+HDTV+x264+AAC+%5BGWC%5D.mp4&amp;tr=udp%3A%2F%2Ftracker.openbittorrent.com%3A80&amp;tr=udp%3A%2F%2Fopen.demonii.com%3A1337&amp;tr=udp%3A%2F%2Ftracker.coppersurfer.tk%3A6969&amp;tr=udp%3A%2F%2Fexodus.desync.com%3A6969","seeders":5,"leechers":0,"uploader":"canc232","files":1,"time":1397643324,"description":"Fargo S01E01 HDTV x264 AAC [GWC] \n\n\nSTORYLINE :\nA drifter named Lorne Malvo arrives in small-town Minnesota and influences the population with his malice and violence, including put-upon insurance salesman Lester Nygaard.\n\n\nSCREENS : &lt;a href=&quot;\nhttp://i.imgur.com/QfwXUd3.jpg&quot; rel=&quot;nofollow&quot; target=&quot;_NEW&quot;&gt;\nhttp://i.imgur.com/QfwXUd3.jpg&lt;/a&gt; &lt;a href=&quot;\nhttp://i.imgur.com/txyUIIn.jpg&quot; rel=&quot;nofollow&quot; target=&quot;_NEW&quot;&gt;\nhttp://i.imgur.com/txyUIIn.jpg&lt;/a&gt; &lt;a href=&quot;\nhttp://i.imgur.com/6LICkRL.jpg&quot; rel=&quot;nofollow&quot; target=&quot;_NEW&quot;&gt;\nhttp://i.imgur.com/6LICkRL.jpg&lt;/a&gt;\n\n\nMEDIA INFO :\nGeneral \nFormat : MPEG-4 \nFormat profile : Base Media \nFile size : 165 MiB \nDuration : 1h 9mn \nOverall bit rate mode : Variable \nOverall bit rate : 332 Kbps \n\nVideo \nFormat : AVC \nFormat profile : &lt;a class=&quot;__cf_email__&quot; href=&quot;/cdn-cgi/l/email-protection&quot; data-cfemail=&quot;074f6e606f474b342937&quot;&gt;[email&amp;#160;protected]&lt;/a&gt;&lt;script cf-hash='f9e31' type=&quot;text/javascript&quot;&gt;\n/* &lt;![CDATA[ */!function(){try{var t=&quot;currentScript&quot;in document?document.currentScript:function(){for(var t=document.getElementsByTagName(&quot;script&quot;),e=t.length;e--;)if(t[e].getAttribute(&quot;cf-hash&quot;))return t[e]}();if(t&amp;&amp;t.previousSibling){var e,r,n,i,c=t.previousSibling,a=c.getAttribute(&quot;data-cfemail&quot;);if(a){for(e=&quot;&quot;,r=parseInt(a.substr(0,2),16),n=2;a.length-n;n+=2)i=parseInt(a.substr(n,2),16)^r,e+=String.fromCharCode(i);e=document.createTextNode(e),c.parentNode.replaceChild(e,c)}}}catch(u){}}();/* ]]&gt; */&lt;/script&gt; \nFormat settings, CABAC : Yes \nFormat settings, ReFrames : 4 frames \nDuration : 1h 9mn \nBit rate : 269 Kbps \nMaximum bit rate : 1 665 Kbps \nWidth : 720 pixels \nHeight : 404 pixels \nDisplay aspect ratio : 16:9 \nFrame rate : 23.976 fps \nStream size : 133 MiB (81%) \nTitle : Fargo S01E01 HDTV x264 AAC [GWC] \nWriting library : x264 core \n\nAudio \nFormat : AAC \nFormat profile : HE-AAC / LC \nDuration : 1h 9mn \nBit rate mode : Variable \nChannel(s) : 2 channels \nSampling rate : 48.0 KHz / 24.0 KHz \nStream size : 29.8 MiB (18%) \nLanguage : English \n\n","torrent":{"xt":"urn:btih:0947909cfb141754112b241d6555e27519f4c9f3","amp;dn":"Fargo+S01E01+HDTV+x264+AAC+%5BGWC%5D.mp4","amp;tr":["udp%3A%2F%2Ftracker.openbittorrent.com%3A80","udp%3A%2F%2Fopen.demonii.com%3A1337","udp%3A%2F%2Ftracker.coppersurfer.tk%3A6969","udp%3A%2F%2Fexodus.desync.com%3A6969"],"infoHash":"0947909cfb141754112b241d6555e27519f4c9f3","infoHashBuffer":{"type":"Buffer","data":[9,71,144,156,251,20,23,84,17,43,36,29,101,85,226,117,25,244,201,243]},"announce":[],"urlList":[]}}